# Blender v2.76 (sub 0) OBJ File: 'WoodRelated.blend'
# www.blender.org
mtllib Log.mtl
o LogStockpile_Cylinder.002
v -0.177109 0.021406 0.078119
v -0.177109 -0.009685 0.081683
v -0.177109 -0.036613 0.073927
v -0.177109 -0.060009 0.053744
v -0.177109 -0.076308 0.027103
v -0.177109 -0.083031 -0.004837
v -0.177109 -0.071267 -0.034075
v -0.177109 -0.054962 -0.059429
v -0.177109 -0.024443 -0.073770
v -0.177109 0.007756 -0.076486
v -0.177109 0.036736 -0.068729
v -0.177109 0.062349 -0.048416
v -0.177109 0.077539 -0.021056
v -0.177109 0.076835 0.008336
v -0.177109 0.071390 0.039273
v -0.177109 0.053034 0.064626
v -0.177097 -0.006017 0.076375
v -0.177097 0.022678 0.073085
v -0.177097 -0.033787 0.068432
v -0.177097 -0.056404 0.050468
v -0.177097 -0.070425 0.025215
v -0.177097 -0.073714 -0.003480
v -0.177097 -0.065772 -0.031250
v -0.177097 -0.047807 -0.053867
v -0.177097 -0.022555 -0.067888
v -0.177097 0.006141 -0.071177
v -0.177097 0.033911 -0.063235
v -0.177097 0.056527 -0.045270
v -0.177097 0.070548 -0.020018
v -0.177097 0.073837 0.008678
v -0.177097 0.065895 0.036448
v -0.177097 0.047930 0.059065
v -0.176492 -0.006017 0.076375
v -0.176492 0.022678 0.073085
v -0.176492 -0.033787 0.068432
v -0.176492 -0.056404 0.050468
v -0.176492 -0.070425 0.025215
v -0.176492 -0.073714 -0.003480
v -0.176492 -0.065772 -0.031250
v -0.176492 -0.047807 -0.053867
v -0.176492 -0.022555 -0.067888
v -0.176492 0.006141 -0.071177
v -0.176492 0.033911 -0.063235
v -0.176492 0.056527 -0.045270
v -0.176492 0.070548 -0.020018
v -0.176492 0.073837 0.008678
v -0.176492 0.065895 0.036448
v -0.176492 0.047930 0.059065
v -0.174537 -0.006017 0.076375
v -0.174537 0.022678 0.073085
v -0.174537 -0.033787 0.068432
v -0.174537 -0.056404 0.050468
v -0.174537 -0.070425 0.025215
v -0.174537 -0.073714 -0.003480
v -0.174537 -0.065772 -0.031250
v -0.174537 -0.047807 -0.053867
v -0.174537 -0.022555 -0.067888
v -0.174537 0.006141 -0.071177
v -0.174537 0.033911 -0.063235
v -0.174537 0.056527 -0.045270
v -0.174537 0.070548 -0.020018
v -0.174537 0.073837 0.008678
v -0.174537 0.065895 0.036448
v -0.174537 0.047930 0.059065
v 0.003787 0.024309 0.078169
v 0.184684 0.024566 0.078968
v 0.003787 -0.004787 0.080796
v 0.184684 -0.006525 0.081367
v 0.003787 -0.037305 0.075812
v 0.184684 -0.036612 0.071622
v 0.003787 -0.061985 0.053489
v 0.184684 -0.061117 0.054463
v 0.003787 -0.077284 0.025934
v 0.184684 -0.076308 0.027103
v 0.003787 -0.078657 -0.006341
v 0.184684 -0.082143 -0.002501
v 0.003787 -0.072207 -0.032961
v 0.184684 -0.071267 -0.034075
v 0.003787 -0.050388 -0.061323
v 0.184684 -0.051802 -0.058580
v 0.003787 -0.025049 -0.075659
v 0.184684 -0.026714 -0.073448
v 0.003787 0.008480 -0.077492
v 0.184684 0.006648 -0.077335
v 0.003787 0.036566 -0.070582
v 0.184684 0.036736 -0.069894
v 0.003787 0.063462 -0.051942
v 0.184684 0.058969 -0.047778
v 0.003787 0.076545 -0.020704
v 0.184684 0.076431 -0.021905
v 0.003787 0.082350 0.009645
v 0.184684 0.079995 0.009185
v 0.003787 0.071468 0.038191
v 0.184684 0.071390 0.038108
v 0.003787 0.054081 0.064627
v 0.184684 0.049654 0.065264
v 0.184671 -0.006017 0.076375
v 0.184671 0.022678 0.073085
v 0.184671 -0.033787 0.068432
v 0.184672 -0.056404 0.050468
v 0.184672 -0.070425 0.025215
v 0.184672 -0.073714 -0.003480
v 0.184672 -0.065772 -0.031250
v 0.184672 -0.047807 -0.053867
v 0.184671 -0.022555 -0.067887
v 0.184671 0.006141 -0.071177
v 0.184671 0.033911 -0.063235
v 0.184671 0.056528 -0.045270
v 0.184671 0.070548 -0.020018
v 0.184671 0.073838 0.008678
v 0.184671 0.065895 0.036448
v 0.184671 0.047931 0.059065
v 0.184067 -0.006017 0.076375
v 0.184067 0.022678 0.073085
v 0.184067 -0.033787 0.068432
v 0.184067 -0.056404 0.050468
v 0.184067 -0.070425 0.025215
v 0.184067 -0.073714 -0.003480
v 0.184067 -0.065772 -0.031250
v 0.184067 -0.047807 -0.053867
v 0.184067 -0.022555 -0.067887
v 0.184067 0.006141 -0.071177
v 0.184067 0.033911 -0.063235
v 0.184067 0.056528 -0.045270
v 0.184067 0.070548 -0.020018
v 0.184067 0.073838 0.008678
v 0.184067 0.065895 0.036448
v 0.184067 0.047931 0.059065
v 0.182112 -0.006017 0.076375
v 0.182112 0.022678 0.073085
v 0.182112 -0.033787 0.068432
v 0.182112 -0.056404 0.050468
v 0.182112 -0.070425 0.025215
v 0.182112 -0.073714 -0.003480
v 0.182112 -0.065772 -0.031250
v 0.182112 -0.047807 -0.053867
v 0.182112 -0.022555 -0.067887
v 0.182112 0.006141 -0.071177
v 0.182112 0.033911 -0.063235
v 0.182112 0.056528 -0.045270
v 0.182112 0.070548 -0.020018
v 0.182112 0.073838 0.008678
v 0.182112 0.065895 0.036448
v 0.182112 0.047931 0.059065
vn 0.001800 0.113900 0.993500
vn -0.011100 -0.276800 0.960900
vn -0.010400 -0.653200 0.757100
vn -0.008600 -0.853000 0.521900
vn -0.003900 -0.978500 0.206000
vn 0.019300 -0.927500 -0.373200
vn -0.001000 -0.841100 -0.540900
vn 0.001300 -0.425300 -0.905100
vn -0.010700 -0.084000 -0.996400
vn -0.009700 0.258500 -0.966000
vn -0.019100 0.621300 -0.783400
vn 0.005800 0.874300 -0.485400
vn 0.005400 0.999700 0.023900
vn 0.000600 0.984900 0.173300
vn -0.006600 0.392400 0.919800
vn -0.004700 0.810000 0.586400
vn 0.000000 0.113900 0.993500
vn 0.000000 -0.993500 0.113900
vn 0.000000 0.275000 -0.961400
vn 0.000000 -0.275000 0.961500
vn 0.000000 0.622000 -0.783000
vn 0.000000 -0.622000 0.783000
vn 0.000000 0.874300 -0.485400
vn 0.000000 -0.874300 0.485400
vn 0.000000 0.993500 -0.113900
vn 0.000000 0.961500 0.275000
vn 0.000000 -0.961500 -0.275000
vn 0.000000 0.783000 0.622000
vn 0.000000 -0.783100 -0.621900
vn 0.000000 0.485400 0.874300
vn 0.000000 -0.113900 -0.993500
vn 0.000000 -0.485400 -0.874300
vn 0.000000 -0.783000 -0.622000
vn -0.000000 0.275000 -0.961500
vn -0.002400 0.076900 0.997000
vn 0.023200 -0.308100 0.951100
vn -0.001700 -0.573600 0.819100
vn 0.001600 -0.874300 0.485400
vn -0.020200 -0.998900 0.042500
vn 0.003600 -0.971900 -0.235500
vn 0.003000 -0.792600 -0.609700
vn 0.006100 -0.492400 -0.870300
vn 0.000300 -0.054600 -0.998500
vn 0.003500 0.238900 -0.971000
vn 0.033000 0.569300 -0.821500
vn -0.003200 0.828900 -0.559400
vn 0.012300 0.982100 -0.187900
vn 0.000500 0.958500 0.285200
vn -0.004600 0.479400 0.877600
vn 0.016900 0.780600 0.624800
vn -1.000000 0.000600 -0.002000
vn -1.000000 0.001700 0.001100
vn -1.000000 -0.001600 0.000900
vn -1.000000 0.002000 -0.000200
vn -1.000000 -0.000600 0.002200
vn -1.000000 -0.001600 -0.001300
vn -1.000000 0.001400 -0.001600
vn -1.000000 0.000700 0.001400
vn -1.000000 -0.000300 -0.002500
vn -1.000000 -0.001800 -0.000000
vn -1.000000 0.001300 0.000500
vn -1.000000 -0.001300 0.001600
vn -1.000000 -0.000800 -0.001500
vn -1.000000 0.002300 -0.001300
vn -1.000000 0.000200 0.002000
vn -1.000000 -0.004200 -0.000700
vn -1.000000 -0.000000 0.000000
vn 1.000000 0.000700 -0.002400
vn 1.000000 0.001600 0.001300
vn 1.000000 -0.001800 0.001000
vn 1.000000 0.001500 -0.000200
vn 1.000000 -0.000500 0.001700
vn 1.000000 -0.001800 -0.001400
vn 1.000000 0.001800 -0.002300
vn 1.000000 0.000900 0.001600
vn 1.000000 -0.000300 -0.002500
vn 1.000000 -0.002000 0.000200
vn 1.000000 0.002000 0.000600
vn 1.000000 -0.002200 0.002800
vn 1.000000 -0.001000 -0.001700
vn 1.000000 0.001800 -0.001000
vn 1.000000 0.000200 0.002000
vn 1.000000 -0.002100 -0.000600
vn -0.001700 0.089900 0.995900
vn 0.008900 -0.151500 0.988400
vn -0.006300 -0.670800 0.741600
vn -0.001600 -0.874300 0.485400
vn 0.024500 -0.998800 0.042500
vn -0.003600 -0.971900 -0.235500
vn 0.013700 -0.792500 -0.609700
vn -0.010700 -0.492400 -0.870300
vn -0.005300 -0.054600 -0.998500
vn -0.006400 0.238900 -0.971000
vn -0.007900 0.569600 -0.821900
vn -0.013200 0.922300 -0.386300
vn -0.028600 0.981800 -0.187800
vn -0.031000 0.934000 0.356000
vn -0.002400 0.414100 0.910200
vn 0.002900 0.835500 0.549500
vn -0.004500 0.089900 0.995900
vn -0.004600 -0.151500 0.988400
vn 0.019700 -0.670700 0.741500
vn 0.004000 -0.981100 0.193400
vn -0.011300 -0.945400 -0.325700
vn 0.000200 -0.783000 -0.622000
vn 0.009100 -0.509800 -0.860200
vn 0.011100 -0.115700 -0.993200
vn 0.003300 0.240100 -0.970800
vn 0.002000 0.705200 -0.709000
vn 0.031800 0.921900 -0.386100
vn -0.000100 0.993500 -0.113900
vn 0.013100 0.934300 0.356200
vn 0.006900 0.414000 0.910200
vn 0.000600 0.835500 0.549500
vn -1.000000 0.001100 0.000900
vn -1.000000 0.001400 -0.000300
vn -1.000000 -0.000500 0.002000
vn -1.000000 -0.001400 -0.001000
vn -1.000000 0.001600 -0.002000
vn -1.000000 0.001000 0.001800
vn -1.000000 -0.004100 0.000500
vn -1.000000 0.002000 0.000600
vn -1.000000 -0.001200 -0.002800
vn -1.000000 0.001800 -0.001100
vn -1.000000 0.000200 0.002400
vn -1.000000 -0.002000 -0.000600
vn 1.000000 0.001000 -0.003000
vn 1.000000 -0.003000 0.002000
vn 1.000000 0.002000 -0.000400
vn 1.000000 -0.000500 0.002000
vn 1.000000 -0.001900 -0.001500
vn 1.000000 0.001200 -0.001700
vn 1.000000 0.001000 0.001800
vn 1.000000 -0.000200 -0.002100
vn 1.000000 0.001500 0.000500
vn 1.000000 -0.001300 0.001300
vn 1.000000 -0.001000 -0.001800
vn 1.000000 0.000200 0.002100
vn 1.000000 -0.002000 -0.000600
vn 1.000000 0.000000 -0.000000
g LogStockpile_Cylinder.002_Bark1
usemtl Bark1
s off
f 1//1 2//1 67//1
f 2//2 3//2 69//2
f 69//3 3//3 4//3
f 71//4 4//4 5//4
f 73//5 5//5 6//5
f 75//6 6//6 7//6
f 77//7 7//7 8//7
f 79//8 8//8 9//8
f 81//9 9//9 10//9
f 10//10 11//10 85//10
f 11//11 12//11 87//11
f 12//12 13//12 89//12
f 89//13 13//13 14//13
f 14//14 15//14 93//14
f 16//15 1//15 65//15
f 15//16 16//16 95//16
f 25//17 41//17 42//17
f 45//18 61//18 62//18
f 19//19 17//19 33//19
f 26//20 42//20 43//20
f 19//21 35//21 36//21
f 27//22 43//22 44//22
f 20//23 36//23 37//23
f 28//24 44//24 45//24
f 21//25 37//25 38//25
f 29//18 45//18 46//18
f 22//26 38//26 39//26
f 30//27 46//27 47//27
f 23//28 39//28 40//28
f 31//29 47//29 48//29
f 24//30 40//30 41//30
f 18//31 34//31 33//31
f 32//32 48//32 34//32
f 38//26 54//26 55//26
f 46//27 62//27 63//27
f 39//28 55//28 56//28
f 48//33 47//33 63//33
f 41//30 40//30 56//30
f 34//31 50//31 49//31
f 48//32 64//32 50//32
f 41//17 57//17 58//17
f 35//34 33//34 49//34
f 42//20 58//20 59//20
f 35//21 51//21 52//21
f 43//22 59//22 60//22
f 36//23 52//23 53//23
f 44//24 60//24 61//24
f 37//25 53//25 54//25
f 67//35 68//35 66//35
f 69//36 70//36 68//36
f 71//37 72//37 70//37
f 71//38 73//38 74//38
f 73//39 75//39 76//39
f 75//40 77//40 78//40
f 77//41 79//41 80//41
f 79//42 81//42 82//42
f 81//43 83//43 84//43
f 83//44 85//44 86//44
f 85//45 87//45 88//45
f 89//46 90//46 88//46
f 89//47 91//47 92//47
f 93//48 94//48 92//48
f 65//49 66//49 96//49
f 95//50 96//50 94//50
f 122//17 121//17 105//17
f 142//18 141//18 125//18
f 115//34 113//34 97//34
f 123//20 122//20 106//20
f 116//21 115//21 99//21
f 124//22 123//22 107//22
f 117//23 116//23 100//23
f 125//24 124//24 108//24
f 118//25 117//25 101//25
f 126//18 125//18 109//18
f 119//26 118//26 102//26
f 127//27 126//27 110//27
f 120//28 119//28 103//28
f 128//33 127//33 111//33
f 121//30 120//30 104//30
f 113//31 114//31 98//31
f 98//32 114//32 128//32
f 135//26 134//26 118//26
f 143//27 142//27 126//27
f 136//28 135//28 119//28
f 144//33 143//33 127//33
f 121//30 137//30 136//30
f 129//31 130//31 114//31
f 130//32 144//32 128//32
f 138//17 137//17 121//17
f 115//34 131//34 129//34
f 139//20 138//20 122//20
f 132//21 131//21 115//21
f 124//22 140//22 139//22
f 133//23 132//23 116//23
f 141//24 140//24 124//24
f 134//25 133//25 117//25
f 2//51 17//51 19//51
f 8//52 7//52 23//52
f 12//53 28//53 29//53
f 5//54 21//54 22//54
f 10//55 26//55 27//55
f 15//56 31//56 32//56
f 4//57 3//57 19//57
f 9//58 8//58 24//58
f 1//59 18//59 17//59
f 14//60 13//60 29//60
f 7//61 6//61 22//61
f 11//62 27//62 28//62
f 16//63 32//63 18//63
f 4//64 20//64 21//64
f 9//65 25//65 26//65
f 15//66 14//66 30//66
f 83//67 75//67 89//67
f 99//68 97//68 68//68
f 80//69 104//69 103//69
f 90//70 109//70 108//70
f 76//71 102//71 101//71
f 86//72 107//72 106//72
f 112//73 111//73 94//73
f 100//74 99//74 70//74
f 82//75 105//75 104//75
f 68//76 97//76 98//76
f 110//77 109//77 90//77
f 78//78 103//78 102//78
f 88//79 108//79 107//79
f 98//80 112//80 96//80
f 74//81 101//81 100//81
f 84//82 106//82 105//82
f 94//83 111//83 110//83
f 65//84 1//84 67//84
f 67//85 2//85 69//85
f 71//86 69//86 4//86
f 73//87 71//87 5//87
f 75//88 73//88 6//88
f 77//89 75//89 7//89
f 79//90 77//90 8//90
f 81//91 79//91 9//91
f 83//92 81//92 10//92
f 83//93 10//93 85//93
f 85//94 11//94 87//94
f 87//95 12//95 89//95
f 91//96 89//96 14//96
f 91//97 14//97 93//97
f 95//98 16//98 65//98
f 93//99 15//99 95//99
f 26//17 25//17 42//17
f 46//18 45//18 62//18
f 35//34 19//34 33//34
f 27//20 26//20 43//20
f 20//21 19//21 36//21
f 28//22 27//22 44//22
f 21//23 20//23 37//23
f 29//24 28//24 45//24
f 22//25 21//25 38//25
f 30//18 29//18 46//18
f 23//26 22//26 39//26
f 31//27 30//27 47//27
f 24//28 23//28 40//28
f 32//33 31//33 48//33
f 25//30 24//30 41//30
f 17//31 18//31 33//31
f 18//32 32//32 34//32
f 39//26 38//26 55//26
f 47//27 46//27 63//27
f 40//28 39//28 56//28
f 64//33 48//33 63//33
f 57//30 41//30 56//30
f 33//31 34//31 49//31
f 34//32 48//32 50//32
f 42//17 41//17 58//17
f 51//34 35//34 49//34
f 43//20 42//20 59//20
f 36//21 35//21 52//21
f 44//22 43//22 60//22
f 37//23 36//23 53//23
f 45//24 44//24 61//24
f 38//25 37//25 54//25
f 65//100 67//100 66//100
f 67//101 69//101 68//101
f 69//102 71//102 70//102
f 72//38 71//38 74//38
f 74//103 73//103 76//103
f 76//104 75//104 78//104
f 78//105 77//105 80//105
f 80//106 79//106 82//106
f 82//107 81//107 84//107
f 84//108 83//108 86//108
f 86//109 85//109 88//109
f 87//110 89//110 88//110
f 90//111 89//111 92//111
f 91//112 93//112 92//112
f 95//113 65//113 96//113
f 93//114 95//114 94//114
f 106//17 122//17 105//17
f 126//18 142//18 125//18
f 99//34 115//34 97//34
f 107//20 123//20 106//20
f 100//21 116//21 99//21
f 108//22 124//22 107//22
f 101//23 117//23 100//23
f 109//24 125//24 108//24
f 102//25 118//25 101//25
f 110//18 126//18 109//18
f 103//26 119//26 102//26
f 111//27 127//27 110//27
f 104//28 120//28 103//28
f 112//33 128//33 111//33
f 105//30 121//30 104//30
f 97//31 113//31 98//31
f 112//32 98//32 128//32
f 119//26 135//26 118//26
f 127//27 143//27 126//27
f 120//28 136//28 119//28
f 128//33 144//33 127//33
f 120//30 121//30 136//30
f 113//31 129//31 114//31
f 114//32 130//32 128//32
f 122//17 138//17 121//17
f 113//34 115//34 129//34
f 123//20 139//20 122//20
f 116//21 132//21 115//21
f 123//22 124//22 139//22
f 117//23 133//23 116//23
f 125//24 141//24 124//24
f 118//25 134//25 117//25
f 3//51 2//51 19//51
f 24//115 8//115 23//115
f 13//53 12//53 29//53
f 6//116 5//116 22//116
f 11//117 10//117 27//117
f 16//118 15//118 32//118
f 20//119 4//119 19//119
f 25//120 9//120 24//120
f 2//59 1//59 17//59
f 30//121 14//121 29//121
f 23//122 7//122 22//122
f 12//62 11//62 28//62
f 1//123 16//123 18//123
f 5//124 4//124 21//124
f 10//125 9//125 26//125
f 31//126 15//126 30//126
f 67//67 65//67 93//67
f 95//67 93//67 65//67
f 91//67 89//67 93//67
f 87//67 85//67 89//67
f 83//67 81//67 79//67
f 79//67 77//67 75//67
f 75//67 73//67 71//67
f 71//67 69//67 67//67
f 67//67 93//67 89//67
f 89//67 85//67 83//67
f 83//67 79//67 75//67
f 75//67 71//67 67//67
f 67//67 89//67 75//67
f 70//127 99//127 68//127
f 78//69 80//69 103//69
f 88//128 90//128 108//128
f 74//129 76//129 101//129
f 84//130 86//130 106//130
f 96//131 112//131 94//131
f 72//132 100//132 70//132
f 80//133 82//133 104//133
f 66//134 68//134 98//134
f 92//77 110//77 90//77
f 76//135 78//135 102//135
f 86//136 88//136 107//136
f 66//137 98//137 96//137
f 72//81 74//81 100//81
f 82//138 84//138 105//138
f 92//139 94//139 110//139
g LogStockpile_Cylinder.002_LogInner
usemtl LogInner
f 59//67 55//67 63//67
f 137//140 141//140 130//140
f 51//67 49//67 50//67
f 50//67 64//67 63//67
f 63//67 62//67 61//67
f 61//67 60//67 63//67
f 59//67 58//67 57//67
f 57//67 56//67 55//67
f 55//67 54//67 53//67
f 53//67 52//67 51//67
f 51//67 50//67 63//67
f 63//67 60//67 59//67
f 59//67 57//67 55//67
f 55//67 53//67 51//67
f 51//67 63//67 55//67
f 130//140 129//140 131//140
f 131//140 132//140 133//140
f 133//140 134//140 135//140
f 135//140 136//140 137//140
f 137//140 138//140 139//140
f 139//140 140//140 137//140
f 141//140 142//140 143//140
f 143//140 144//140 130//140
f 130//140 131//140 133//140
f 133//140 135//140 137//140
f 137//140 140//140 141//140
f 141//140 143//140 130//140
f 130//140 133//140 137//140
